<?xml version="1.0" encoding="UTF-8" standalone="no"?>
<!-- Created with Inkscape (http://www.inkscape.org/) -->

<svg
   version="1.1"
   id="svg2"
   xml:space="preserve"
   width="400.56"
   height="97.133331"
   viewBox="0 0 400.56 97.133331"
   sodipodi:docname="Smile___Logo_cmyk.eps"
   xmlns:inkscape="http://www.inkscape.org/namespaces/inkscape"
   xmlns:sodipodi="http://sodipodi.sourceforge.net/DTD/sodipodi-0.dtd"
   xmlns="http://www.w3.org/2000/svg"
   xmlns:svg="http://www.w3.org/2000/svg"><defs
     id="defs6" /><sodipodi:namedview
     id="namedview4"
     pagecolor="#ffffff"
     bordercolor="#666666"
     borderopacity="1.0"
     inkscape:pageshadow="2"
     inkscape:pageopacity="0.0"
     inkscape:pagecheckerboard="0" /><g
     id="g8"
     inkscape:groupmode="layer"
     inkscape:label="ink_ext_XXXXXX"
     transform="matrix(1.3333333,0,0,-1.3333333,0,97.133333)"><g
       id="g10"
       transform="scale(0.1)"><path
         d="m 894.809,396.406 h 36.793 c -1.93,-5.57 -2.887,-10.047 -2.887,-13.437 0,-12.352 4.332,-21.918 12.984,-28.699 8.656,-6.778 20.922,-10.168 36.793,-10.168 9.617,0 18.633,1.382 27.058,4.156 8.41,2.762 15.63,6.621 21.64,11.558 6.01,4.934 10.76,10.774 14.25,17.52 3.48,6.738 5.23,14.086 5.23,22.035 0,7.461 -1.87,13.484 -5.6,18.063 -3.73,4.574 -9.68,8.425 -17.85,11.562 l -17.67,6.504 -20.925,7.941 c -2.887,1.204 -6.797,2.887 -11.727,5.059 -4.929,2.164 -9.554,4.215 -13.882,6.145 -12.508,5.531 -21.282,11.675 -26.328,18.418 -5.055,6.738 -7.583,15.777 -7.583,27.097 0,13 2.649,24.922 7.942,35.758 5.281,10.836 12.621,20.168 22.004,28 9.375,7.824 20.613,13.906 33.722,18.242 13.107,4.336 27.477,6.504 43.107,6.504 11.54,0 22.06,-1.266 31.56,-3.789 9.49,-2.527 17.55,-6.129 24.17,-10.82 6.61,-4.688 11.77,-10.344 15.51,-16.953 3.72,-6.618 5.59,-14.012 5.59,-22.184 0,-1.93 -0.13,-4.027 -0.36,-6.313 -0.24,-2.285 -0.61,-4.753 -1.08,-7.394 h -36.8 c 0.73,3.574 1.09,6.195 1.09,7.867 0,10.25 -4.15,18.227 -12.45,23.949 -8.29,5.719 -19.66,8.586 -34.09,8.586 -8.9,0 -17.19,-1.328 -24.88,-3.965 -7.702,-2.644 -14.378,-6.246 -20.023,-10.808 -5.652,-4.563 -10.101,-10.024 -13.344,-16.387 -3.25,-6.359 -4.875,-13.265 -4.875,-20.707 0,-4.328 0.723,-8.226 2.168,-11.715 1.442,-3.48 3.786,-6.722 7.032,-9.718 3.25,-3 7.574,-5.879 12.984,-8.641 5.414,-2.762 11.965,-5.586 19.668,-8.465 l 23.44,-8.648 c 0.48,-0.239 1.5,-0.664 3.06,-1.258 1.57,-0.598 3.67,-1.383 6.32,-2.34 5.29,-1.926 9.68,-3.606 13.16,-5.043 3.49,-1.445 6.5,-2.883 9.02,-4.328 2.52,-1.442 4.81,-2.996 6.86,-4.676 2.04,-1.68 4.38,-3.726 7.03,-6.125 8.41,-7.926 12.62,-18.008 12.62,-30.254 0,-8.402 -1.56,-17.109 -4.69,-26.113 -3.12,-9.008 -7.45,-17.231 -12.98,-24.668 -9.62,-12.969 -22.07,-22.574 -37.34,-28.816 -15.27,-6.243 -33.965,-9.364 -56.086,-9.364 -14.43,0 -27.23,1.262 -38.41,3.785 -11.184,2.524 -19.543,6.192 -25.074,11 -5.535,4.332 -10.039,10.52 -13.528,18.582 -3.484,8.051 -5.226,15.926 -5.226,23.625 0,2.645 0.238,5.411 0.719,8.297 0.48,2.887 1.203,6.731 2.164,11.543"
         style="fill:#3d49a6;fill-opacity:1;fill-rule:nonzero;stroke:none"
         id="path12" /><path
         d="m 1109.43,324.262 38.59,181.437 h 32.47 l -6.13,-30.297 c 18.51,22.84 39.91,34.266 64.2,34.266 14.43,0 25.91,-3.672 34.45,-11 8.53,-7.34 13.04,-17.133 13.52,-29.398 17.85,26.203 41,39.316 69.47,39.316 16.16,0 28.4,-3.609 36.72,-10.82 8.32,-7.215 12.49,-17.676 12.49,-31.383 0,-2.406 -0.06,-4.934 -0.19,-7.574 -0.12,-2.653 -0.42,-4.93 -0.89,-6.856 l -2.56,-11.902 -25.15,-115.789 h -32.53 l 23.8,112.429 2.17,9.403 c 0.48,1.926 0.84,4.152 1.08,6.683 0.24,2.532 0.36,4.762 0.36,6.692 0,8.672 -2.71,15.359 -8.12,20.062 -5.41,4.703 -13.04,7.051 -22.9,7.051 -6.98,0 -13.59,-1.449 -19.84,-4.34 -6.26,-2.89 -11.96,-6.926 -17.13,-12.109 -5.18,-5.188 -9.69,-11.391 -13.53,-18.617 -3.85,-7.235 -6.62,-15.188 -8.3,-23.86 l -2.16,-10.484 -19.84,-92.91 h -32.46 l 23.08,109.539 2.53,12.656 c 0.72,3.129 1.08,6.262 1.08,9.398 0,9.149 -2.88,16.625 -8.66,22.407 -5.77,5.785 -13.47,8.683 -23.08,8.683 -14.19,0 -26.46,-5.547 -36.79,-16.632 -10.35,-11.09 -17.56,-26.391 -21.64,-45.915 l -21.65,-100.136 h -32.46"
         style="fill:#3d49a6;fill-opacity:1;fill-rule:nonzero;stroke:none"
         id="path14" /><path
         d="m 1476.63,545.375 8.29,38.961 h 32.47 l -8.3,-38.961 z m -47.25,-221.113 38.59,181.437 h 32.46 l -38.59,-181.437 h -32.46"
         style="fill:#3d49a6;fill-opacity:1;fill-rule:nonzero;stroke:none"
         id="path16" /><path
         d="m 1514.86,324.262 55.55,260.074 h 32.47 l -55.56,-260.074 h -32.46"
         style="fill:#3d49a6;fill-opacity:1;fill-rule:nonzero;stroke:none"
         id="path18" /><path
         d="m 1706.39,488.746 c -15.15,0 -28.02,-5.082 -38.59,-15.238 -10.59,-10.156 -18.64,-24.918 -24.17,-44.278 h 97.02 c 0.96,4.301 1.63,8 1.99,11.114 0.35,3.105 0.54,6.336 0.54,9.679 0,13.145 -2.94,22.887 -8.84,29.219 -5.9,6.336 -15.21,9.504 -27.95,9.504 z m 63.48,-77.91 h -130.22 c -1.44,-5.539 -2.4,-9.922 -2.88,-13.168 -0.48,-3.25 -0.72,-7.16 -0.72,-11.727 0,-30.781 13.47,-46.164 40.4,-46.164 24.04,0 41.48,13.461 52.3,40.395 h 30.3 c -1.93,-5.774 -3.55,-10.098 -4.87,-12.984 -1.32,-2.887 -3.06,-6.016 -5.23,-9.379 -8.42,-12.262 -19.47,-21.704 -33.18,-28.317 -13.71,-6.609 -29.34,-9.918 -46.9,-9.918 -43.52,0 -65.28,20.68 -65.28,62.043 0,18.992 2.65,36.309 7.94,51.942 5.28,15.625 12.73,29.093 22.36,40.398 9.61,11.301 21.1,20.078 34.44,26.332 13.35,6.25 28.08,9.379 44.19,9.379 21.4,0 37.15,-4.996 47.25,-14.969 10.1,-9.98 15.16,-25.312 15.16,-45.992 0,-6.254 -0.37,-12.207 -1.1,-17.852 -0.71,-5.656 -2.04,-12.328 -3.96,-20.019"
         style="fill:#3d49a6;fill-opacity:1;fill-rule:nonzero;stroke:none"
         id="path20" /><path
         d="m 1945.53,545.375 8.29,38.961 h 32.47 l -8.3,-38.961 z m -47.25,-221.113 38.59,181.437 h 32.47 l -38.6,-181.437 h -32.46"
         style="fill:#3d49a6;fill-opacity:1;fill-rule:nonzero;stroke:none"
         id="path22" /><path
         d="m 1983.75,324.262 38.6,181.437 h 32.47 l -6.86,-33.183 c 9.39,13.461 19.49,23.203 30.31,29.218 10.82,6.004 23.55,9.012 38.23,9.012 16.35,0 28.8,-3.601 37.33,-10.82 8.54,-7.211 12.81,-17.676 12.81,-31.379 0,-6.981 -1.21,-16.113 -3.61,-27.414 l -25.25,-116.871 h -32.1 l 23.8,112.183 c 0.72,3.844 1.33,7.989 1.81,12.442 0.47,4.449 0.72,7.992 0.72,10.64 0,8.657 -2.77,15.571 -8.29,20.743 -5.54,5.171 -12.99,7.753 -22.37,7.753 -17.56,0 -32.22,-6.976 -44,-20.918 -5.06,-6.253 -9.2,-13.109 -12.45,-20.562 -3.25,-7.457 -6.19,-17.313 -8.84,-29.578 l -19.84,-92.703 h -32.47"
         style="fill:#3d49a6;fill-opacity:1;fill-rule:nonzero;stroke:none"
         id="path24" /><path
         d="m 2328.6,584.336 h 36.06 l 7.94,-218.231 114.34,218.231 h 43.65 l 21.64,-218.231 100.65,218.231 h 32.46 L 2565.57,324.262 h -45.08 l -22.73,218.23 -113.99,-218.23 h -45.8 l -9.37,260.074"
         style="fill:#3d49a6;fill-opacity:1;fill-rule:nonzero;stroke:none"
         id="path26" /><path
         d="m 2745.22,488.746 c -15.16,0 -28.03,-5.082 -38.61,-15.238 -10.57,-10.156 -18.64,-24.918 -24.16,-44.278 h 97.03 c 0.95,4.301 1.62,8 1.99,11.114 0.35,3.105 0.53,6.336 0.53,9.679 0,13.145 -2.95,22.887 -8.83,29.219 -5.9,6.336 -15.22,9.504 -27.95,9.504 z m 63.48,-77.91 h -130.22 c -1.44,-5.539 -2.4,-9.922 -2.89,-13.168 -0.49,-3.25 -0.72,-7.16 -0.72,-11.727 0,-30.781 13.47,-46.164 40.41,-46.164 24.04,0 41.48,13.461 52.3,40.395 h 30.3 c -1.94,-5.774 -3.56,-10.098 -4.87,-12.984 -1.33,-2.887 -3.06,-6.016 -5.23,-9.379 -8.42,-12.262 -19.47,-21.704 -33.19,-28.317 -13.71,-6.609 -29.35,-9.918 -46.89,-9.918 -43.53,0 -65.29,20.68 -65.29,62.043 0,18.992 2.65,36.309 7.93,51.942 5.29,15.625 12.75,29.093 22.36,40.398 9.63,11.301 21.11,20.078 34.45,26.332 13.36,6.25 28.09,9.379 44.2,9.379 21.39,0 37.15,-4.996 47.25,-14.969 10.1,-9.98 15.15,-25.312 15.15,-45.992 0,-6.254 -0.37,-12.207 -1.09,-17.852 -0.72,-5.656 -2.05,-12.328 -3.96,-20.019"
         style="fill:#3d49a6;fill-opacity:1;fill-rule:nonzero;stroke:none"
         id="path28" /><path
         d="m 2877.93,545.375 8.31,38.961 h 32.46 l -8.3,-38.961 z m -47.24,-221.113 38.59,181.437 h 32.46 l -38.59,-181.437 h -32.46"
         style="fill:#3d49a6;fill-opacity:1;fill-rule:nonzero;stroke:none"
         id="path30" /><path
         d="m 2916.18,324.262 55.54,260.074 h 32.46 l -55.54,-260.074 h -32.46"
         style="fill:#3d49a6;fill-opacity:1;fill-rule:nonzero;stroke:none"
         id="path32" /><path
         d="m 1061.05,58.2734 1.82,13.5235 123.62,159.9611 h -96.87 l 1.82,13.765 h 116.08 l -1.55,-13.765 -124.66,-159.7267 h 108.04 l -1.56,-13.7579 h -126.74"
         style="fill:#3d49a6;fill-opacity:1;fill-rule:nonzero;stroke:none"
         id="path34" /><path
         d="m 1239.21,111.094 c 0,-0.703 0.04,-1.395 0.13,-2.09 0.08,-0.691 0.13,-1.297 0.13,-1.816 0.86,-12.6763 4.49,-22.645 10.91,-29.9302 6.4,-7.2969 14.8,-10.9297 25.19,-10.9297 7.27,0 13.98,1.8555 20.12,5.586 6.15,3.7304 11.47,8.8984 15.98,15.4882 4.5,6.6016 8,14.4927 10.51,23.6917 2.51,9.191 3.77,19.16 3.77,29.922 0,14.058 -3.21,25.121 -9.61,33.187 -6.41,8.067 -15.32,12.106 -26.75,12.106 -7.27,0 -14.02,-1.864 -20.26,-5.594 -6.23,-3.738 -11.55,-8.899 -15.97,-15.488 -4.41,-6.598 -7.88,-14.532 -10.39,-23.821 -2.51,-9.277 -3.76,-19.383 -3.76,-30.312 z m 90.63,55.996 3.38,27.789 h 14.8 L 1331.14,58.2734 h -14.54 l 3.12,27.2735 c -1.39,-2.9492 -2.47,-5.1172 -3.25,-6.5039 -0.78,-1.3867 -1.86,-2.8516 -3.25,-4.4141 -5.02,-6.2305 -11.13,-10.9961 -18.3,-14.2773 -7.19,-3.2891 -14.94,-4.9414 -23.25,-4.9414 -7.27,0 -13.89,1.3086 -19.87,3.9062 -5.97,2.5977 -11.08,6.3086 -15.32,11.1641 -4.24,4.8437 -7.49,10.6914 -9.74,17.5273 -2.25,6.836 -3.38,14.5042 -3.38,22.9882 0,12.637 1.61,24.277 4.81,34.926 3.2,10.652 7.75,19.742 13.64,27.273 5.88,7.528 12.85,13.418 20.9,17.66 8.05,4.239 16.92,6.364 26.62,6.364 22.51,0 36.01,-10.047 40.51,-30.129"
         style="fill:#3d49a6;fill-opacity:1;fill-rule:nonzero;stroke:none"
         id="path36" /><path
         d="m 1378.67,58.2734 23.11,187.2496 h 14.54 l -9.35,-75.054 c 6.06,9.176 13.03,16.23 20.91,21.164 7.88,4.933 16.23,7.402 25.06,7.402 5.54,0 10.69,-0.91 15.45,-2.726 4.76,-1.821 8.88,-4.332 12.34,-7.536 3.46,-3.203 6.15,-7.011 8.05,-11.425 1.91,-4.414 2.86,-9.219 2.86,-14.414 0,-3.289 -0.26,-7.098 -0.78,-11.426 l -11.43,-93.2346 h -14.8 l 11.17,91.4146 c 0.17,1.386 0.3,2.769 0.39,4.156 0.08,1.386 0.13,2.683 0.13,3.894 0,8.141 -2.56,14.762 -7.66,19.871 -5.12,5.106 -11.82,7.661 -20.13,7.661 -7.97,0 -15.71,-2.727 -23.25,-8.18 -7.53,-5.453 -14.24,-13.203 -20.12,-23.246 l -11.95,-95.5706 h -14.54"
         style="fill:#3d49a6;fill-opacity:1;fill-rule:nonzero;stroke:none"
         id="path38" /><path
         d="m 1526.44,58.2734 16.61,136.6056 h 14.81 l -3.12,-24.934 c 5.89,9.352 12.69,16.496 20.39,21.426 7.71,4.938 16.23,7.402 25.58,7.402 5.72,0 10.92,-0.867 15.58,-2.597 4.67,-1.731 8.71,-4.199 12.07,-7.403 3.38,-3.203 6.02,-7.011 7.93,-11.425 1.9,-4.414 2.86,-9.305 2.86,-14.672 0,-1.735 0,-3.422 0,-5.063 0,-1.652 -0.18,-3.422 -0.52,-5.328 l -11.69,-94.0116 h -14.81 l 11.18,91.9376 c 0.17,1.207 0.3,2.379 0.39,3.504 0.07,1.125 0.13,2.379 0.13,3.765 0,8.313 -2.52,14.977 -7.54,20 -5.02,5.02 -11.77,7.532 -20.25,7.532 -8.14,0 -15.89,-2.727 -23.24,-8.18 -7.37,-5.453 -14.07,-13.469 -20.14,-24.023 l -11.68,-94.5356 h -14.54"
         style="fill:#3d49a6;fill-opacity:1;fill-rule:nonzero;stroke:none"
         id="path40" /><path
         d="m 1690.05,111.094 c 0,-0.703 0.04,-1.395 0.13,-2.09 0.09,-0.691 0.14,-1.297 0.14,-1.816 0.86,-12.6763 4.49,-22.645 10.9,-29.9302 6.4,-7.2969 14.8,-10.9297 25.19,-10.9297 7.27,0 13.99,1.8555 20.13,5.586 6.14,3.7304 11.47,8.8984 15.96,15.4882 4.52,6.6016 8.01,14.4927 10.53,23.6917 2.5,9.191 3.76,19.16 3.76,29.922 0,14.058 -3.2,25.121 -9.6,33.187 -6.41,8.067 -15.33,12.106 -26.76,12.106 -7.26,0 -14.02,-1.864 -20.25,-5.594 -6.23,-3.738 -11.56,-8.899 -15.98,-15.488 -4.41,-6.598 -7.88,-14.532 -10.39,-23.821 -2.51,-9.277 -3.76,-19.383 -3.76,-30.312 z m 90.64,55.996 3.38,27.789 h 14.8 L 1781.99,58.2734 h -14.54 l 3.11,27.2735 c -1.39,-2.9492 -2.47,-5.1172 -3.25,-6.5039 -0.77,-1.3867 -1.86,-2.8516 -3.24,-4.4141 -5.02,-6.2305 -11.14,-10.9961 -18.3,-14.2773 -7.19,-3.2891 -14.94,-4.9414 -23.26,-4.9414 -7.27,0 -13.89,1.3086 -19.87,3.9062 -5.97,2.5977 -11.07,6.3086 -15.31,11.1641 -4.25,4.8437 -7.5,10.6914 -9.75,17.5273 -2.24,6.836 -3.38,14.5042 -3.38,22.9882 0,12.637 1.61,24.277 4.81,34.926 3.2,10.652 7.75,19.742 13.64,27.273 5.89,7.528 12.85,13.418 20.91,17.66 8.05,4.239 16.91,6.364 26.62,6.364 22.5,0 36.01,-10.047 40.51,-30.129"
         style="fill:#3d49a6;fill-opacity:1;fill-rule:nonzero;stroke:none"
         id="path42" /><path
         d="m 1829.51,58.2734 16.62,136.6056 h 14.8 l -3.38,-26.488 c 6.75,10.39 13.47,17.918 20.13,22.589 6.66,4.68 13.99,7.02 21.95,7.02 2.6,0 5.06,-0.176 7.41,-0.523 2.32,-0.348 4.97,-0.872 7.91,-1.559 l -1.82,-14.281 c -2.95,1.117 -5.5,1.918 -7.66,2.398 -2.16,0.477 -4.64,0.715 -7.4,0.715 -4.84,0 -9.32,-1.082 -13.38,-3.242 -4.06,-2.156 -8.44,-5.488 -13.11,-9.973 -3.29,-3.113 -6.02,-6.051 -8.18,-8.816 -2.16,-2.766 -4.72,-6.395 -7.66,-10.883 l -11.69,-93.5626 h -14.54"
         style="fill:#3d49a6;fill-opacity:1;fill-rule:nonzero;stroke:none"
         id="path44" /><path
         d="m 1907.93,58.2734 1.57,11.4258 91.93,113.4958 h -69.86 l 1.3,11.684 h 87.78 l -1.56,-11.945 -91.94,-112.9731 h 81.04 l -1.31,-11.6875 h -98.95"
         style="fill:#3d49a6;fill-opacity:1;fill-rule:nonzero;stroke:none"
         id="path46" /><path
         d="m 2041.68,182.672 1.29,12.207 h 18.71 l 3.89,32.723 h 14.55 l -3.9,-32.723 h 30.39 l -1.82,-12.207 h -30.13 l -11.69,-94.7892 c -0.17,-1.5625 -0.3,-2.9023 -0.39,-4.0351 -0.08,-1.1211 -0.12,-2.1172 -0.12,-2.9883 0,-3.9844 1.29,-7.1289 3.89,-9.4727 2.6,-2.3437 6.15,-3.5039 10.65,-3.5039 2.42,0 4.71,0.2227 6.88,0.7031 2.16,0.4688 4.63,1.3555 7.4,2.6641 l -1.55,-12.7148 c -3.48,-0.8672 -6.4,-1.5625 -8.84,-2.0782 -2.43,-0.5195 -5.02,-0.7812 -7.78,-0.7812 -8.14,0 -14.46,1.9805 -18.96,5.9648 -4.51,3.9649 -6.76,9.3282 -6.76,16.0664 0,1.211 0.1,2.7227 0.26,4.5313 0.17,1.8164 0.43,3.6719 0.78,5.5742 l 11.43,94.8595 h -18.18"
         style="fill:#3d49a6;fill-opacity:1;fill-rule:nonzero;stroke:none"
         id="path48" /><path
         d="m 2137.77,111.875 c 0,-0.879 0,-1.738 0,-2.617 0,-0.86 0.09,-1.727 0.26,-2.598 0.86,-12.4881 4.42,-22.2069 10.65,-29.1483 6.23,-6.9453 14.54,-10.4101 24.93,-10.4101 7.44,0 14.24,1.7773 20.38,5.3398 6.15,3.5547 11.43,8.5859 15.85,15.0977 4.41,6.5039 7.88,14.2579 10.38,23.2809 2.52,9.035 3.77,19.004 3.77,29.942 0,14.918 -3.12,26.324 -9.35,34.218 -6.24,7.903 -15.32,11.848 -27.27,11.848 -7.27,0 -13.99,-1.824 -20.12,-5.465 -6.15,-3.644 -11.39,-8.808 -15.72,-15.488 -4.33,-6.68 -7.7,-14.621 -10.12,-23.812 -2.43,-9.192 -3.64,-19.258 -3.64,-30.188 z m -27.53,-99.0508 22.07,182.0548 h 14.8 l -3.37,-27.008 c 9.7,19.906 25.62,29.863 47.79,29.863 15.06,0 26.87,-4.976 35.45,-14.929 8.57,-9.957 12.85,-23.68 12.85,-41.164 0,-12.461 -1.64,-23.946 -4.93,-34.414 -3.29,-10.477 -7.88,-19.5707 -13.76,-27.2661 -5.9,-7.7148 -12.85,-13.6796 -20.91,-17.9296 -8.06,-4.2383 -16.85,-6.3555 -26.36,-6.3555 -10.92,0 -19.78,2.5976 -26.62,7.793 -6.84,5.1953 -11.39,12.7226 -13.63,22.5859 l -8.83,-73.2305 h -14.55"
         style="fill:#3d49a6;fill-opacity:1;fill-rule:nonzero;stroke:none"
         id="path50" /><path
         d="m 2270.47,58.2734 16.62,136.6056 h 14.81 l -3.38,-26.488 c 6.76,10.39 13.46,17.918 20.13,22.589 6.67,4.68 13.97,7.02 21.94,7.02 2.6,0 5.07,-0.176 7.4,-0.523 2.35,-0.348 4.98,-0.872 7.93,-1.559 l -1.81,-14.281 c -2.95,1.117 -5.51,1.918 -7.67,2.398 -2.17,0.477 -4.64,0.715 -7.4,0.715 -4.86,0 -9.31,-1.082 -13.38,-3.242 -4.07,-2.156 -8.44,-5.488 -13.12,-9.973 -3.29,-3.113 -6.01,-6.051 -8.18,-8.816 -2.17,-2.766 -4.71,-6.395 -7.66,-10.883 l -11.68,-93.5626 h -14.55"
         style="fill:#3d49a6;fill-opacity:1;fill-rule:nonzero;stroke:none"
         id="path52" /><path
         d="m 2372.28,111.094 c 0,-0.703 0.04,-1.395 0.13,-2.09 0.09,-0.691 0.13,-1.297 0.13,-1.816 0.86,-12.6763 4.5,-22.645 10.9,-29.9302 6.41,-7.2969 14.81,-10.9297 25.2,-10.9297 7.26,0 13.98,1.8555 20.12,5.586 6.15,3.7304 11.46,8.8984 15.97,15.4882 4.49,6.6016 8.01,14.4927 10.53,23.6917 2.5,9.191 3.75,19.16 3.75,29.922 0,14.058 -3.2,25.121 -9.61,33.187 -6.41,8.067 -15.31,12.106 -26.74,12.106 -7.26,0 -14.02,-1.864 -20.25,-5.594 -6.23,-3.738 -11.57,-8.899 -15.98,-15.488 -4.41,-6.598 -7.88,-14.532 -10.39,-23.821 -2.51,-9.277 -3.76,-19.383 -3.76,-30.312 z m 90.64,55.996 3.37,27.789 h 14.81 L 2464.2,58.2734 h -14.53 l 3.11,27.2735 c -1.39,-2.9492 -2.46,-5.1172 -3.24,-6.5039 -0.79,-1.3867 -1.86,-2.8516 -3.25,-4.4141 -5.02,-6.2305 -11.13,-10.9961 -18.3,-14.2773 -7.18,-3.2891 -14.94,-4.9414 -23.25,-4.9414 -7.27,0 -13.9,1.3086 -19.87,3.9062 -5.97,2.5977 -11.08,6.3086 -15.31,11.1641 -4.25,4.8437 -7.5,10.6914 -9.75,17.5273 -2.25,6.836 -3.38,14.5042 -3.38,22.9882 0,12.637 1.6,24.277 4.81,34.926 3.2,10.652 7.75,19.742 13.64,27.273 5.89,7.528 12.85,13.418 20.91,17.66 8.04,4.239 16.91,6.364 26.62,6.364 22.5,0 35.99,-10.047 40.51,-30.129"
         style="fill:#3d49a6;fill-opacity:1;fill-rule:nonzero;stroke:none"
         id="path54" /><path
         d="m 2493.31,58.2734 55.56,70.6326 -34.53,65.973 h 18.95 l 22.09,-47.266 c 1.03,-2.082 1.75,-3.941 2.2,-5.582 0.43,-1.648 0.82,-3.418 1.17,-5.332 0.69,2.082 1.47,3.946 2.33,5.586 0.86,1.641 1.99,3.512 3.38,5.586 l 33.77,47.008 h 18.16 l -50.12,-65.445 38.19,-71.1606 h -17.93 l -27.01,52.7226 c -0.86,1.387 -1.51,2.942 -1.94,4.668 -0.45,1.738 -0.84,3.731 -1.17,5.977 -0.88,-2.246 -1.82,-4.2 -2.85,-5.84 -1.06,-1.649 -1.99,-3.164 -2.87,-4.551 l -39.73,-52.9766 h -17.65"
         style="fill:#3d49a6;fill-opacity:1;fill-rule:nonzero;stroke:none"
         id="path56" /><path
         d="m 2651.47,212.023 3.11,26.489 h 16.36 l -3.38,-26.489 z m -18.18,-153.7496 16.87,136.6056 h 14.55 L 2648.09,58.2734 h -14.8"
         style="fill:#3d49a6;fill-opacity:1;fill-rule:nonzero;stroke:none"
         id="path58" /><path
         d="m 2692.5,105.539 h 13.77 c -0.17,-1.555 -0.31,-2.941 -0.39,-4.152 -0.09,-1.211 -0.13,-2.2542 -0.13,-3.1253 0,-10.039 3.38,-17.8711 10.13,-23.4961 6.74,-5.625 16.1,-8.4375 28.05,-8.4375 6.23,0 11.9,0.8203 17.01,2.461 5.1,1.6406 9.51,3.8984 13.24,6.7578 3.72,2.8515 6.63,6.2695 8.7,10.2539 2.09,3.9844 3.12,8.3984 3.12,13.2422 0,7.102 -2.95,12.297 -8.83,15.586 -1.38,0.859 -3.12,1.691 -5.19,2.461 -2.09,0.781 -4.77,1.523 -8.07,2.207 l -17.13,3.644 -3.63,0.782 -12.48,2.859 c -6.92,1.555 -12.46,3.371 -16.62,5.449 -3.99,1.895 -7.01,5.02 -9.08,9.348 -2.07,4.324 -3.13,9.262 -3.13,14.805 0,6.406 1.35,12.207 4.04,17.402 2.68,5.195 6.49,9.648 11.43,13.371 4.92,3.723 10.82,6.621 17.66,8.703 6.83,2.074 14.41,3.113 22.71,3.113 15.08,0 26.62,-3.074 34.67,-9.218 8.07,-6.145 12.09,-15.024 12.09,-26.621 0,-1.039 0,-2.121 0,-3.246 0,-1.129 -0.18,-2.641 -0.53,-4.547 h -13.49 c 0,1.211 0.03,2.207 0.11,2.988 0.1,0.781 0.14,1.434 0.14,1.949 0,9.176 -2.97,16.106 -8.93,20.777 -5.95,4.672 -14.53,7.012 -25.76,7.012 -11.39,0 -20.6,-2.691 -27.67,-8.066 -7.07,-5.383 -10.61,-12.406 -10.61,-21.078 0,-6.77 2.68,-11.711 8.03,-14.836 1.03,-0.516 2.22,-1.074 3.61,-1.688 1.39,-0.605 3.24,-1.261 5.57,-1.945 2.32,-0.703 5.27,-1.395 8.81,-2.09 3.53,-0.691 7.89,-1.562 13.06,-2.598 l 6.99,-1.308 c 3.64,-0.684 6.7,-1.297 9.2,-1.817 2.5,-0.527 4.65,-1.082 6.47,-1.699 1.81,-0.605 3.46,-1.25 4.92,-1.953 1.47,-0.684 2.97,-1.562 4.53,-2.598 8.28,-5.027 12.42,-13.007 12.42,-23.933 0,-6.9455 -1.46,-13.3596 -4.41,-19.2502 -2.95,-5.9062 -7.01,-10.9765 -12.21,-15.2344 -5.19,-4.2578 -11.38,-7.5976 -18.57,-10.0195 -7.17,-2.4219 -15.02,-3.6328 -23.5,-3.6328 -16.09,0 -28.65,3.5937 -37.65,10.7734 -9.01,7.1758 -13.5,17.2735 -13.5,30.2618 0,1.3789 0.08,2.8125 0.25,4.2773 0.18,1.4644 0.43,3.5074 0.78,6.1054"
         style="fill:#3d49a6;fill-opacity:1;fill-rule:nonzero;stroke:none"
         id="path60" /><path
         d="m 740.473,580.5 c -16.387,53.773 -52.774,83.398 -102.391,83.398 -15.324,0 -31.867,-2.859 -49.074,-8.457 -36.524,-11.855 -71.094,-31.48 -100.508,-52.218 -42.715,-30.106 -80.332,-50.164 -125.312,-50.164 -13.614,0 -27.715,1.937 -41.856,5.808 l -3.242,0.879 2.324,-2.266 c 21.152,-20.292 45.949,-31.031 71.75,-31.031 11.914,0 24.149,2.254 36.387,6.676 42.949,15.504 83.621,35.297 121.629,54.215 27.48,13.691 52.89,16.765 73.047,16.765 40.625,0 65.832,-27.929 74.941,-82.98 16.25,-98.086 -4.082,-217.062 -62.176,-329.766 -12.648,-24.504 -27.941,-48.125 -44.445,-70.879 -5.945,-6.535 -16.211,-21.3003 -48.953,-62.1011 -2.414,-2.8516 -4.797,-5.7422 -7.18,-8.5742 l 0.059,-0.0195 c -32.5,-34.6563 -49.746,13.5937 -49.746,13.5937 0,0 -2.852,6.8867 -46.973,104.8011 -33.856,75.183 -83.809,8.488 -83.809,8.488 0,0 -24.492,-33.453 -61.004,-81.2383 C 272.68,67.5703 251.137,73.2813 234.633,88.7695 193.902,139.629 138.891,214.684 117.594,256.016 59.4688,368.734 39.1055,487.727 55.4141,585.738 c 9.1132,55.063 34.2968,82.996 74.9409,82.996 20.129,0 44.309,-6.925 71.75,-20.589 36.297,-18.09 78.602,-38.688 121.668,-54.258 12.227,-4.43 24.473,-6.696 36.348,-6.696 25.781,0 50.606,10.754 71.758,31.067 l 2.324,2.265 -3.269,-0.898 c -14.153,-3.867 -28.235,-5.812 -41.829,-5.812 -44.98,0 -82.636,20.05 -125.429,50.261 -29.336,20.692 -62.567,44.121 -99.082,56.004 -17.266,5.606 -33.77,8.442 -49.121,8.442 -49.6292,0 -85.9769,-29.602 -102.3636,-83.391 C -11.1289,565.719 2.34766,471.176 20.4922,398.727 46.2344,295.934 124.652,160.234 205.16,75.9102 c 4.063,-4.6875 9.531,-10.4493 16.067,-16.0743 1.914,-1.8554 3.855,-3.7226 5.769,-5.5 l 0.645,-0.5273 c 23.652,-17.793 57.089,-27.957 87.101,14.707 49.18,69.9924 56.356,80.1754 56.356,80.1754 0,0 22.715,40.02 41.211,-4.179 18.859,-44.9495 51.953,-110.8206 51.953,-110.8206 0,0 32.773,-71.2773 90.918,-6.4844 19.453,21.6328 32.746,34.7774 43.457,48.5157 64.621,71.0273 108.808,155.9923 134.426,258.3593 18.152,72.496 31.648,167.07 7.41,246.418"
         style="fill:#3d49a6;fill-opacity:1;fill-rule:evenodd;stroke:none"
         id="path62" /><path
         d="m 468.383,459.293 c 0,0 -26.094,-11.016 2.793,-17.914 24.621,-1.836 37.832,-3 48.769,-7.883 15.625,-9.09 22.5,-32.418 3.086,-54.375 -19.414,-21.933 -71.953,-90.941 -77.246,-129.828 -2.176,-15.84 -9.5,-33.711 27.949,-11.828 54.297,31.695 84.688,121.109 90.364,137.937 5.672,16.836 11.824,68.27 -34.59,82.774 -42.063,13.148 -61.125,1.117 -61.125,1.117"
         style="fill:#f68712;fill-opacity:1;fill-rule:evenodd;stroke:none"
         id="path64" /><path
         d="m 545.922,498.105 c 3.234,-11.191 -3.242,-22.871 -14.453,-26.101 -11.199,-3.238 -22.879,3.23 -26.114,14.441 -3.242,11.207 3.235,22.887 14.473,26.09 11.172,3.25 22.852,-3.238 26.094,-14.43"
         style="fill:#f68712;fill-opacity:1;fill-rule:evenodd;stroke:none"
         id="path66" /><path
         d="m 327.387,459.293 c 0,0 26.093,-11.016 -2.821,-17.914 -24.601,-1.836 -37.832,-3 -48.742,-7.883 -15.652,-9.09 -22.5,-32.418 -3.086,-54.375 19.414,-21.933 71.946,-90.941 77.246,-129.828 2.168,-15.84 9.493,-33.711 -27.976,-11.828 -54.27,31.695 -84.688,121.109 -90.344,137.937 -5.703,16.836 -11.816,68.27 34.57,82.774 42.063,13.148 61.153,1.117 61.153,1.117"
         style="fill:#3871c1;fill-opacity:1;fill-rule:evenodd;stroke:none"
         id="path68" /><path
         d="m 249.848,498.105 c -3.243,-11.191 3.242,-22.871 14.445,-26.101 11.18,-3.238 22.879,3.23 26.094,14.441 3.23,11.207 -3.215,22.887 -14.446,26.09 -11.179,3.25 -22.89,-3.238 -26.093,-14.43"
         style="fill:#3871c1;fill-opacity:1;fill-rule:evenodd;stroke:none"
         id="path70" /><path
         d="m 492.758,418.695 c -92.324,-78.437 -193.457,-1.894 -193.457,-1.894 -12.363,-21.371 39.179,-55.317 59.387,-63.203 20.242,-7.852 13.503,-25.84 13.503,-25.84 0,0 -4.863,-25.676 -4.5,-62.934 1.082,-37.664 21.082,-46.211 29.825,-47.136 29.558,0 31.589,53.839 31.589,53.839 0,0 -0.554,31.375 -5.496,52.129 -2.148,13.824 -3,27.457 20.496,33.34 0,0 59.747,22.141 48.653,61.699"
         style="fill:#80cc28;fill-opacity:1;fill-rule:evenodd;stroke:none"
         id="path72" /><path
         d="m 419.574,414.609 c 0,-11.871 -9.609,-21.488 -21.465,-21.488 -11.894,0 -21.504,9.617 -21.504,21.488 0,11.871 9.61,21.489 21.504,21.489 11.856,0 21.465,-9.618 21.465,-21.489"
         style="fill:#80cc28;fill-opacity:1;fill-rule:evenodd;stroke:none"
         id="path74" /></g></g></svg>
